<?xml version="1.0" standalone="no"?>
<!DOCTYPE svg PUBLIC "-//W3C//DTD SVG 20010904//EN"
 "http://www.w3.org/TR/2001/REC-SVG-20010904/DTD/svg10.dtd">
<svg version="1.0" xmlns="http://www.w3.org/2000/svg"
 width="512.000000pt" height="512.000000pt" viewBox="0 0 512.000000 512.000000"
 preserveAspectRatio="xMidYMid meet">

<g transform="translate(0.000000,512.000000) scale(0.100000,-0.100000)"
fill="#000000" stroke="none">
<path d="M2387 4769 c-235 -27 -478 -110 -672 -229 -168 -103 -369 -290 -478
-446 l-57 -81 -122 -6 c-528 -26 -958 -412 -1044 -937 -30 -178 -4 -453 62
-648 134 -400 481 -739 941 -916 l88 -34 5 -474 c5 -461 6 -474 27 -513 25
-47 74 -95 123 -121 34 -18 85 -19 1300 -19 1215 0 1266 1 1300 19 49 26 98
74 123 121 21 39 22 52 27 513 l5 474 85 33 c463 178 810 515 944 917 61 182
89 441 67 613 -33 252 -141 472 -319 649 -201 199 -449 309 -729 323 l-122 6
-77 104 c-151 203 -376 391 -597 498 -271 131 -594 188 -880 154z m426 -184
c116 -20 262 -67 372 -120 296 -142 550 -400 690 -698 47 -100 63 -117 114
-117 67 0 94 64 62 142 l-21 51 71 -7 c155 -16 328 -80 452 -170 72 -51 189
-170 236 -239 51 -76 109 -206 133 -303 32 -125 31 -353 -1 -503 -24 -116 -75
-255 -123 -340 -159 -282 -443 -508 -791 -630 -86 -30 -94 -31 -263 -31 l-173
0 113 112 c157 156 249 301 306 484 11 36 20 79 20 94 0 36 -44 80 -81 80 -47
0 -75 -36 -109 -140 -81 -248 -279 -468 -537 -599 l-62 -31 -285 0 -285 0 -3
314 c-3 298 -4 315 -23 336 -31 34 -61 42 -100 26 -51 -22 -55 -51 -55 -383
l0 -293 -287 0 -286 0 -86 46 c-255 137 -427 335 -515 592 -19 57 -43 110 -53
118 -49 37 -133 -3 -133 -64 0 -47 38 -159 87 -258 59 -120 153 -243 265 -348
l92 -86 -173 0 c-200 0 -239 9 -437 105 -284 137 -519 357 -641 600 -88 173
-127 349 -127 565 0 179 18 266 84 408 141 300 436 508 762 539 l69 6 -21 -49
c-35 -81 -8 -144 63 -144 49 0 66 18 112 117 89 191 238 382 403 517 202 164
485 284 747 315 104 13 306 6 418 -14z m1027 -3576 l0 -441 -29 -29 -29 -29
-1222 0 -1222 0 -29 29 -29 29 0 441 0 441 1280 0 1280 0 0 -441z"/>
</g>
</svg>
